REM MD5 78acb11d5fdd91b9361f29ccd9b944a4
FILE "Langrisser IV & V - Final Edition (Japan) (Disc 2) (Langrisser V Disc).bin" BINARY
  TRACK 01 MODE2/2352
    INDEX 01 00:00:00
  TRACK 02 AUDIO
    INDEX 00 53:47:70
    INDEX 01 53:49:70
  TRACK 03 AUDIO
    INDEX 00 55:13:19
    INDEX 01 55:15:19
  TRACK 04 AUDIO
    INDEX 00 60:31:09
    INDEX 01 60:33:09
REM LEADOUT 65:48:74
